# xmcd
#
# Track frame offsets:
#	150
#	16812
#	32391
#	47155
#	66013
#	79033
#	105726
#	121802
#	138738
#	155710
#	173663
#	184194
#	212404
#
# Disc length: 3137 seconds
#
# Revision: 0
# Processed by: cddbd v1.5.1PL0 Copyright (c) Steve Scherf et al.
# Submitted via: dBpowerAMP V4.0
#
DISCID=a50c3f0d
DTITLE=Evan Silva - Out of the Shadows
DYEAR=1900
DGENRE=Jazz+Funk
TTITLE0=Still missing you
TTITLE1=Just one step
TTITLE2=Shake some ground
TTITLE3=Make no mistake
TTITLE4=She
TTITLE5=As it is
TTITLE6=Stay with me
TTITLE7=She be gone
TTITLE8=You shook it
TTITLE9=Soul searching
TTITLE10=For you
TTITLE11=Misty morning
TTITLE12=You dance I sing
EXTD=
EXTT0=
EXTT1=
EXTT2=
EXTT3=
EXTT4=
EXTT5=
EXTT6=
EXTT7=
EXTT8=
EXTT9=
EXTT10=
EXTT11=
EXTT12=
PLAYORDER=
